PathFileType	4	(X/Y/Z)	Patient4_TMGait_0pt8_01_left_24.trc.trc
DataRate	CameraRate	NumFrames	NumMarkers	Units	OrigDataRate	OrigDataStartFrame	OrigNumFrames
86.419753086420	86.419753086420	6	33	mm	86.419753086420	124	       141
Frame#	Time	Sacral			L.Shoulder			Chest			R.Shoulder			Neck			R.ASIS			L.ASIS			R.Thigh.Superior			R.Thigh.Lateral			R.Thigh.Inferior			R.Patella			L.Thigh.Superior			L.Thigh.Lateral			L.Thigh.Inferior			L.Patella			L.Shank.Superior			L.Shank.Lateral			L.Shank.Inferior			R.Shank.Superior			R.Shank.Lateral			R.Shank.Inferior			R.Heel			R.Midfoot.Superior			R.Midfoot.Lateral			R.Toe			L.Heel			L.Midfoot.Lateral			L.Midfoot.Superior			L.Toe			L.Elbow			L.Wrist			R.Elbow			R.Wrist			
		X1	Y1	Z1	X2	Y2	Z2	X3	Y3	Z3	X4	Y4	Z4	X5	Y5	Z5	X6	Y6	Z6	X7	Y7	Z7	X8	Y8	Z8	X9	Y9	Z9	X10	Y10	Z10	X11	Y11	Z11	X12	Y12	Z12	X13	Y13	Z13	X14	Y14	Z14	X15	Y15	Z15	X16	Y16	Z16	X17	Y17	Z17	X18	Y18	Z18	X19	Y19	Z19	X20	Y20	Z20	X21	Y21	Z21	X22	Y22	Z22	X23	Y23	Z23	X24	Y24	Z24	X25	Y25	Z25	X26	Y26	Z26	X27	Y27	Z27	X28	Y28	Z28	X29	Y29	Z29	X30	Y30	Z30	X31	Y31	Z31	X32	Y32	Z32	X33	Y33	Z33	

124	27.613285714286	898.271257962085	994.188145715720	510.107016475442	1041.208715282183	1418.574028440754	315.772031661895	1167.304559875704	1351.492798373500	460.845167856410	1108.716274082360	1424.765452779367	644.916494575653	1046.186589162297	1479.558096808038	471.562607051632	1127.936567971972	926.519653971449	611.637386086647	1098.390696989853	943.074692614927	336.192828466882	1113.800927396576	711.795224072235	587.186482798859	1000.686026109042	624.199478120689	647.069633129798	1056.080376041754	554.347685975894	568.048719291973	1029.832007067742	467.790781128060	570.952669433057	1179.628820118846	767.537507434075	367.923086553552	1129.190503846550	632.791956269420	298.016751310722	1239.327030613513	581.892712013865	352.726556768234	1266.014714269988	517.077046271674	352.090879373959	1253.573102821846	442.456104819735	345.310067477646	1190.886290275308	307.133936333673	307.382679659853	1287.514975582144	216.381259078745	359.775324716452	982.700723188054	388.967921634739	577.337621428721	891.566252521155	302.144454252076	640.702179844630	910.166868932468	201.255701303531	574.572693560997	749.240179620421	50.650609274971	542.838761849885	922.455260392614	97.249550908521	578.233614756676	832.363061998808	39.720255537216	616.719322877325	1040.484754352841	39.385998542290	606.257846182172	1216.698253023029	40.158201101518	413.148578866900	1283.450566205106	42.774369335859	326.625750923020	1354.452875837091	119.883147041264	339.703677256343	1485.591502587156	89.979901896249	302.991425759741	863.910982469396	1116.519607716442	240.796284777603	765.984577846092	878.973201925699	256.417628718835	1274.875986933627	1128.777125088307	752.741477053939	1493.130027792275	1232.658106420253	685.448299500531	
125	27.624857142857	900.137563989098	993.206119635732	506.501223590294	1042.139725972596	1417.790698067489	313.304878837721	1168.013245866293	1351.266155002998	458.827943367402	1108.327846618305	1424.082840872695	642.808006308739	1046.459424110386	1478.748248037752	469.350914600960	1129.351577779800	925.437628769516	609.293140426001	1101.109864459394	942.402366645828	333.872316094712	1114.872077967420	710.578951794549	585.673791196294	1000.944223476968	623.477086137768	644.884461277435	1057.027074875090	552.845559682785	566.795864855202	1030.044613511540	465.388702377611	569.898462316869	1182.011643915636	765.494848951442	366.177882274851	1129.477979271957	630.837342585372	298.003537708710	1239.197608525106	579.330401295443	353.003492855830	1264.181825381115	513.261927396091	353.314644092015	1250.914869852569	438.446172719901	346.544767172430	1185.801757009048	304.025554787656	309.231634689394	1280.265834952461	211.747039766444	362.735670599901	980.855648241581	387.595743902620	576.278769626585	887.454389402911	303.222854589050	639.810411634487	904.092226321603	201.508935129652	574.417819259656	740.232693602676	53.214262538046	543.331795786138	914.090381720209	97.532755243419	578.593895680055	823.327408974303	40.683194075347	616.984176778879	1031.298720867625	38.965991413739	606.321114199797	1204.465988811356	38.648637092300	416.365349249536	1271.079817562245	39.847127608051	329.567170953535	1345.128363925684	113.705810394590	343.737831580733	1475.353851297931	78.835765114213	306.391910333548	864.193693106885	1116.339799917177	239.516632447230	764.626525059348	879.499520987250	255.811035827301	1274.826210375871	1128.221919034261	750.624130032400	1487.901105037817	1240.732716905263	682.658598907370	
126	27.636428571429	901.970986159263	992.504606366735	502.841478853221	1043.258721690913	1417.239332188007	310.744777479742	1168.838334769147	1351.276619503346	456.785941853960	1107.991049626992	1423.624019156280	640.667430966022	1046.853777510249	1478.205013918844	467.044758337170	1130.804457659492	924.593020289811	606.795351664720	1103.783136976587	942.067090628995	331.515558573586	1116.201214111404	709.606987167854	583.976698673423	1001.717568417273	622.837261379776	642.612501381494	1058.609533639348	551.503705536883	565.431345278150	1031.076367296469	462.957859074382	568.963424202640	1184.192896195326	763.617733088412	364.361698428257	1129.765859569092	629.382957872120	297.430983498550	1238.883050397334	577.104902852352	353.089972544271	1262.209542916337	509.998061753569	354.233192136759	1248.296480295376	435.101121945299	347.366451476881	1181.291361765938	301.531893712845	310.143152728067	1273.509288808717	207.893825031518	365.023065436329	979.617680622007	386.320810728154	575.342714675488	883.834865609086	304.637462328919	638.953229543199	898.431351842589	202.072990975410	574.403456459096	731.389345723629	56.534815672351	543.927859886218	906.033586654222	97.899939117583	579.097947974624	814.369575606999	41.983177693741	617.288071732833	1022.081546970118	38.593411973768	606.347870231127	1192.885294484459	37.662972268717	418.589840409383	1259.578257005714	37.684363674404	331.707282198074	1336.353502845584	108.507262447459	347.167559849403	1465.758435204376	69.165936166983	309.581773242363	865.414087860111	1115.784965082637	237.900752622690	764.957790958419	879.306882377127	254.626415627310	1274.037297071850	1127.280590387640	748.663246828076	1482.270456877476	1247.406208457503	680.212675351211	
127	27.648000000000	903.711903372945	992.152285638274	499.195981203915	1044.556916734113	1416.986006190726	308.129153553168	1169.777869985457	1351.547929228015	454.728686380717	1107.764324819549	1423.452442875544	638.498076109191	1047.374710276952	1477.984939223148	464.662623825099	1132.237125909468	924.040671432205	604.125507497556	1106.309344992720	942.126542318095	329.103116452257	1117.803591164521	708.939888433448	582.020435267526	1003.139400155164	622.280546647196	640.272798500269	1060.947034979488	550.366630760768	563.927826432288	1033.080476411091	460.536322953990	568.187311902239	1186.102762929795	762.088728829677	362.456872288366	1130.120325448923	628.544431109251	296.246249401786	1238.427295691536	575.373956293258	352.891929095680	1260.196041165381	507.436462905839	354.714366417492	1245.791548807670	432.519018454872	347.706537476557	1177.378283969756	299.752576429264	310.093114114868	1267.264323451753	204.911652055565	366.581543535899	979.142055397706	385.167919912479	574.568719138537	880.866492738886	306.443155445208	638.158374381865	893.319191418025	203.007861128393	574.554959015825	722.821932503394	60.791771127082	544.630264046982	898.374257913379	98.379304366860	579.759266775300	805.549121547726	43.741536743653	617.626960696106	1012.839027016397	38.262548510994	606.333912851161	1182.115658065999	37.155180345134	419.903023165294	1249.032428784104	36.265399590454	333.072639674773	1328.090188824138	104.434230727520	349.862491439971	1456.786586359438	61.360311503700	312.335290472074	867.588528220359	1114.910825635024	235.909547848888	767.037667297982	878.415322157780	252.833785053912	1272.429643813874	1125.969818183339	746.860790071876	1476.340600488731	1252.643014806535	678.113813808699	
128	27.659571428571	905.312199101354	992.189531613896	495.613915061591	1046.010893046938	1417.080364391862	305.498104929950	1170.817553200647	1352.086956657271	452.665524379711	1107.690920453571	1423.611598447382	636.302603823962	1048.012458300507	1478.122789703860	462.229041526168	1133.589675980589	923.823335972173	601.271410351868	1108.603809170199	942.608499501509	326.600586632232	1119.703547422997	708.628439834382	579.753756868578	1005.335917713403	621.803034206714	637.893924794033	1064.164016888616	549.469070536800	562.284353004696	1036.202424554461	458.167067848417	567.616185431320	1187.706657683000	761.066264302692	360.429850816450	1130.577081097534	628.372599625944	294.465381676517	1237.858182094455	574.218646479369	352.326068411702	1258.194333681628	505.619534787909	354.670243534328	1243.404398189116	430.694703610783	347.548355069687	1173.945332178725	298.698170155781	309.171868482386	1261.418510032197	202.780113380886	367.436051427011	979.592142977308	384.159136360815	573.991483259634	878.720624264302	308.688692470265	637.452517255725	888.903473770923	204.373169185044	574.890596034076	714.676807761895	66.171273618618	545.433677091502	891.210124326493	99.017704225410	580.584460663495	796.950275494263	46.105543734286	617.996085389660	1003.589608616320	37.956910384399	606.280547825711	1172.136679288323	37.029427823265	420.456128512892	1239.347242267419	35.490424813225	333.757577289771	1320.183099088304	101.490867778100	351.782492993704	1448.293363681219	55.555052893705	314.501283814251	870.712692580998	1113.781756645016	233.512361657555	770.919245974075	876.864836824079	250.414324328382	1269.919557159566	1124.318567647961	745.208372249411	1470.204529124338	1256.395850550199	676.360205231090	
129	27.671142857143	906.736364301561	992.620847778401	492.118017083859	1047.584162135752	1417.547296054596	302.888561085085	1171.929874939656	1352.882043845874	450.605424037667	1107.786946365985	1424.116363705689	634.083773800746	1048.742191736864	1478.625158236985	459.771043323646	1134.806812990672	923.963754049262	598.232265404147	1110.609257882377	943.505282306267	323.968143888692	1121.932099434261	708.707464871036	577.162409442051	1008.408174360304	621.398534972768	635.512671917748	1068.372264381649	548.834875921246	560.529023986451	1040.559414939827	455.898115108887	567.292079260971	1189.004251983684	760.642415269825	358.231624132426	1131.098200713009	628.829192303902	292.176299176351	1237.160326394582	573.617724277275	351.330260484600	1256.191696497906	504.481670285238	354.075178874629	1241.066035396749	429.532824030135	346.929173226500	1170.775262350610	298.292179319267	307.568112491009	1255.782281559115	201.390673989552	367.683060381539	981.120720611616	383.314290165809	573.632370524887	877.567073643742	311.411320450743	636.854434905983	885.331737492520	206.225148486408	575.415361890112	707.131905159085	72.850086746767	546.321301463990	884.640260416197	99.883720580209	581.567892198929	788.682674634268	49.242222753730	618.389360953471	994.366796915610	37.649476068782	606.195932743608	1162.807878426200	37.166947052799	420.438579387119	1230.319797404370	35.214068598218	333.902425674711	1312.433341606290	99.565102903971	352.976730006743	1440.080174639325	51.649824565461	316.024706253102	874.758529360234	1112.464781344079	230.688700484641	776.647289309141	874.713494188926	247.360696058481	1266.424618740194	1122.366704276446	743.687224961697	1463.942923142179	1258.601344632595	674.944660023040	
